<svg width="512" height="160" viewBox="0 0 512 160" fill="none" xmlns="http://www.w3.org/2000/svg">
  <svg x="12" y="20" width="120" height="120" viewBox="7 -40 1092 1092" fill="none">
    <path fill="#DA2B2B" d="M272.00,714.00 L272.00,747.00 L288.00,815.00 L491.00,815.00 L499.00,797.00 L499.00,778.00 L472.00,776.00 L457.00,770.00 L440.00,768.00 L388.00,750.00 L320.00,718.00 L293.00,700.00 L280.00,702.00 L272.00,714.00 Z M829.00,412.00 L821.00,408.00 L806.00,410.00 L774.00,447.00 L743.00,476.00 L722.00,476.00 L712.00,482.00 L708.00,488.00 L706.00,501.00 L691.00,512.00 L680.00,516.00 L669.00,510.00 L660.00,510.00 L644.00,520.00 L640.00,533.00 L623.00,540.00 L610.00,540.00 L599.00,532.00 L582.00,532.00 L576.00,534.00 L567.00,546.00 L562.00,546.00 L507.00,483.00 L531.00,453.00 L545.00,427.00 L549.00,392.00 L543.00,374.00 L529.00,360.00 L485.00,330.00 L447.00,312.00 L428.00,310.00 L398.00,344.00 L364.00,392.00 L322.00,472.00 L292.00,564.00 L284.00,604.00 L280.00,657.00 L290.00,669.00 L328.00,695.00 L388.00,727.00 L436.00,745.00 L472.00,753.00 L491.00,753.00 L534.00,715.00 L586.00,689.00 L591.00,689.00 L610.00,677.00 L619.00,675.00 L693.00,631.00 L735.00,599.00 L773.00,563.00 L803.00,523.00 L825.00,477.00 L833.00,447.00 L833.00,420.00 L829.00,412.00 Z M795.00,272.00 L787.00,256.00 L771.00,240.00 L749.00,224.00 L725.00,212.00 L695.00,202.00 L642.00,198.00 L592.00,206.00 L536.00,228.00 L478.00,266.00 L446.00,296.00 L444.00,303.00 L467.00,311.00 L507.00,333.00 L531.00,351.00 L552.00,373.00 L559.00,373.00 L577.00,361.00 L586.00,349.00 L597.00,349.00 L611.00,343.00 L623.00,327.00 L625.00,312.00 L644.00,301.00 L652.00,305.00 L671.00,303.00 L690.00,283.00 L706.00,279.00 L761.00,277.00 L789.00,281.00 L795.00,272.00 Z"/>
  </svg>
  <text x="136" y="101" fill="#080809" font-family="Inter, system-ui, -apple-system, BlinkMacSystemFont, Segoe UI, sans-serif" font-size="62" font-weight="700" letter-spacing="0">ClawHub</text>
</svg>
