<svg xmlns="http://www.w3.org/2000/svg" viewBox="0 0 512 512" fill="none">
  <rect width="512" height="512" rx="0" fill="none"/>
  <!-- Body segments -->
  <g fill="#F03020" stroke="#1a0808" stroke-width="6" stroke-linejoin="round">
    <!-- Tail fan - center -->
    <ellipse cx="256" cy="460" rx="42" ry="30"/>
    <!-- Tail fan - left -->
    <ellipse cx="210" cy="455" rx="32" ry="24" transform="rotate(25 210 455)"/>
    <!-- Tail fan - right -->
    <ellipse cx="302" cy="455" rx="32" ry="24" transform="rotate(-25 302 455)"/>
    <!-- Lower body segment -->
    <rect x="208" y="380" width="96" height="55" rx="12"/>
    <!-- Mid-lower body -->
    <rect x="204" y="335" width="104" height="55" rx="12"/>
    <!-- Mid body -->
    <rect x="200" y="290" width="112" height="55" rx="14"/>
    <!-- Upper body / thorax -->
    <ellipse cx="256" cy="255" rx="72" ry="65"/>
    <!-- Head -->
    <circle cx="256" cy="195" r="58"/>
    <!-- Left claw arm -->
    <path d="M195 230 Q150 190 120 170 Q100 155 95 140" stroke-width="18" fill="none" stroke-linecap="round"/>
    <!-- Right claw arm -->
    <path d="M317 230 Q362 190 392 170 Q412 155 417 140" stroke-width="18" fill="none" stroke-linecap="round"/>
    <!-- Left claw -->
    <ellipse cx="88" cy="115" rx="52" ry="42" transform="rotate(-20 88 115)"/>
    <!-- Right claw -->
    <ellipse cx="424" cy="115" rx="52" ry="42" transform="rotate(20 424 115)"/>
    <!-- Left claw notch -->
    <path d="M65 95 Q78 80 72 65" stroke-width="6" fill="none" stroke="#1a0808" stroke-linecap="round"/>
    <!-- Right claw notch -->
    <path d="M447 95 Q434 80 440 65" stroke-width="6" fill="none" stroke="#1a0808" stroke-linecap="round"/>
    <!-- Left legs -->
    <path d="M205 290 Q175 295 155 305" stroke-width="10" fill="none" stroke-linecap="round"/>
    <path d="M202 320 Q172 330 152 340" stroke-width="10" fill="none" stroke-linecap="round"/>
    <path d="M205 350 Q178 358 158 370" stroke-width="10" fill="none" stroke-linecap="round"/>
    <!-- Right legs -->
    <path d="M307 290 Q337 295 357 305" stroke-width="10" fill="none" stroke-linecap="round"/>
    <path d="M310 320 Q340 330 360 340" stroke-width="10" fill="none" stroke-linecap="round"/>
    <path d="M307 350 Q334 358 354 370" stroke-width="10" fill="none" stroke-linecap="round"/>
  </g>
  <!-- Eyes -->
  <circle cx="236" cy="185" r="10" fill="#000"/>
  <circle cx="276" cy="185" r="10" fill="#000"/>
</svg>
