<svg width="1200" height="630" viewBox="0 0 1200 630" fill="none" xmlns="http://www.w3.org/2000/svg">
  <defs>
    <radialGradient id="bgGlowA" cx="0" cy="0" r="1" gradientUnits="userSpaceOnUse" gradientTransform="translate(360 300) rotate(14.5) scale(520 300)">
      <stop stop-color="#902018" stop-opacity="0.34"/>
      <stop offset="1" stop-color="#902018" stop-opacity="0"/>
    </radialGradient>
    <radialGradient id="bgGlowB" cx="0" cy="0" r="1" gradientUnits="userSpaceOnUse" gradientTransform="translate(880 286) rotate(167) scale(430 260)">
      <stop stop-color="#D4453A" stop-opacity="0.14"/>
      <stop offset="1" stop-color="#D4453A" stop-opacity="0"/>
    </radialGradient>
    <linearGradient id="panelStroke" x1="120" y1="180" x2="1080" y2="540" gradientUnits="userSpaceOnUse">
      <stop stop-color="#C94A40" stop-opacity="0.3"/>
      <stop offset="1" stop-color="#FFFFFF" stop-opacity="0.08"/>
    </linearGradient>
    <linearGradient id="searchStroke" x1="428" y1="304" x2="1014" y2="304" gradientUnits="userSpaceOnUse">
      <stop stop-color="#7A2A23"/>
      <stop offset="1" stop-color="#C54339"/>
    </linearGradient>
    <filter id="softGlow" x="-30%" y="-30%" width="160%" height="160%" filterUnits="objectBoundingBox">
      <feGaussianBlur stdDeviation="18"/>
    </filter>
  </defs>

  <rect width="1200" height="630" fill="#050507"/>
  <rect width="1200" height="630" fill="url(#bgGlowA)"/>
  <rect width="1200" height="630" fill="url(#bgGlowB)"/>

  <g opacity="0.8">
    <circle cx="162" cy="120" r="1.4" fill="#FF6B5F"/>
    <circle cx="194" cy="164" r="1.1" fill="#D4453A"/>
    <circle cx="244" cy="142" r="1.2" fill="#F45B4E"/>
    <circle cx="286" cy="182" r="1.3" fill="#C73E34"/>
    <circle cx="324" cy="146" r="1.1" fill="#E7574B"/>
    <circle cx="372" cy="172" r="1.5" fill="#FF7A6E"/>
    <circle cx="416" cy="132" r="1.1" fill="#D4453A"/>
    <circle cx="456" cy="186" r="1.2" fill="#FF6B5F"/>
    <circle cx="500" cy="150" r="1.1" fill="#D4453A"/>
    <circle cx="548" cy="170" r="1.4" fill="#F45B4E"/>
    <circle cx="602" cy="132" r="1.1" fill="#D4453A"/>
    <circle cx="652" cy="164" r="1.3" fill="#FF6B5F"/>
    <circle cx="704" cy="144" r="1.1" fill="#D4453A"/>
    <circle cx="752" cy="172" r="1.4" fill="#F45B4E"/>
    <circle cx="808" cy="136" r="1.2" fill="#D4453A"/>
    <circle cx="854" cy="176" r="1.1" fill="#FF6B5F"/>
    <circle cx="906" cy="150" r="1.3" fill="#D4453A"/>
    <circle cx="956" cy="182" r="1.1" fill="#F45B4E"/>
    <circle cx="1012" cy="146" r="1.4" fill="#D4453A"/>
    <circle cx="1058" cy="170" r="1.1" fill="#FF6B5F"/>
  </g>

  <g opacity="0.45">
    <circle cx="174" cy="502" r="1.1" fill="#C73E34"/>
    <circle cx="220" cy="534" r="1.3" fill="#FF6B5F"/>
    <circle cx="268" cy="512" r="1.1" fill="#D4453A"/>
    <circle cx="320" cy="546" r="1.2" fill="#F45B4E"/>
    <circle cx="370" cy="516" r="1.1" fill="#D4453A"/>
    <circle cx="426" cy="542" r="1.3" fill="#FF6B5F"/>
    <circle cx="478" cy="508" r="1.1" fill="#D4453A"/>
    <circle cx="942" cy="506" r="1.2" fill="#F45B4E"/>
    <circle cx="988" cy="540" r="1.1" fill="#D4453A"/>
    <circle cx="1040" cy="514" r="1.3" fill="#FF6B5F"/>
  </g>

  <rect x="110" y="158" width="980" height="1" fill="#A5342B" fill-opacity="0.18"/>
  <rect x="110" y="468" width="980" height="1" fill="#A5342B" fill-opacity="0.22"/>

  <g>
    <ellipse cx="252" cy="288" rx="114" ry="114" fill="#D4453A" fill-opacity="0.12" filter="url(#softGlow)"/>
    <circle cx="252" cy="288" r="84" fill="#0D0A0B" stroke="#E15448" stroke-opacity="0.8" stroke-width="2.5"/>
    <circle cx="252" cy="288" r="62" fill="#110B0C" stroke="#913129" stroke-opacity="0.8"/>
    <path d="M252 234C232.118 234 216 250.118 216 270V308C216 336.719 239.281 360 268 360H294" stroke="#F36D61" stroke-width="10" stroke-linecap="round" opacity="0.28"/>
    <path d="M238 324C247.5 337 258.5 344 272 344C285.5 344 297 337 306 324" stroke="#F36D61" stroke-width="7" stroke-linecap="round" opacity="0.35"/>
    <circle cx="233" cy="271" r="7" fill="#FFE1D8"/>
    <circle cx="271" cy="271" r="7" fill="#FFE1D8"/>
    <rect x="224" y="294" width="58" height="8" rx="4" fill="#F25B4F" opacity="0.88"/>
    <rect x="196" y="378" width="112" height="10" rx="5" fill="#D4453A" fill-opacity="0.36"/>
  </g>

  <g>
    <text x="428" y="250" fill="#F3EEEE" font-size="66" font-weight="800" letter-spacing="-2.64" font-family="'Helvetica Neue', Helvetica, Arial, sans-serif">Equip. Install.</text>
    <text x="850" y="250" fill="#FF4A3D" font-size="66" font-weight="800" letter-spacing="-2.64" font-family="'Helvetica Neue', Helvetica, Arial, sans-serif">Build.</text>
    <text x="428" y="310" fill="#E7DDDC" font-size="30" font-weight="500" letter-spacing="-0.4" font-family="'Helvetica Neue', Helvetica, Arial, sans-serif">Thousands of developer tools ready for your next project.</text>
  </g>

  <g>
    <rect x="428" y="340" width="586" height="74" rx="22" fill="#140D10" stroke="url(#searchStroke)" stroke-width="1.6"/>
    <circle cx="470" cy="377" r="11" stroke="#F3E7E5" stroke-width="3"/>
    <line x1="478" y1="385" x2="487" y2="394" stroke="#F3E7E5" stroke-width="3" stroke-linecap="round"/>
    <text x="508" y="386" fill="#F0E4E2" font-size="24" font-weight="500" font-family="'Helvetica Neue', Helvetica, Arial, sans-serif">What are you looking for?</text>
    <rect x="808" y="352" width="182" height="50" rx="14" fill="#E24538"/>
    <rect x="808" y="352" width="182" height="50" rx="14" fill="#FFFFFF" fill-opacity="0.05"/>
    <text x="840" y="385" fill="#FFF8F6" font-size="24" font-weight="700" font-family="'Helvetica Neue', Helvetica, Arial, sans-serif">Search tools</text>
  </g>

  <g>
    <rect x="428" y="434" width="180" height="40" rx="20" fill="#1A1317" stroke="#34252A"/>
    <text x="462" y="460" fill="#ECE2E0" font-size="18" font-weight="500" font-family="'Helvetica Neue', Helvetica, Arial, sans-serif">self-improving agent</text>
    <rect x="624" y="434" width="171" height="40" rx="20" fill="#1A1317" stroke="#34252A"/>
    <text x="656" y="460" fill="#ECE2E0" font-size="18" font-weight="500" font-family="'Helvetica Neue', Helvetica, Arial, sans-serif">GitHub integration</text>
    <rect x="811" y="434" width="183" height="40" rx="20" fill="#1A1317" stroke="#34252A"/>
    <text x="845" y="460" fill="#ECE2E0" font-size="18" font-weight="500" font-family="'Helvetica Neue', Helvetica, Arial, sans-serif">dashboard builder</text>
  </g>

  <g>
    <rect x="366" y="510" width="666" height="1" fill="#A5342B" fill-opacity="0.24"/>
    <rect x="368" y="524" width="648" height="86" rx="24" fill="#0C090B" fill-opacity="0.82" stroke="url(#panelStroke)"/>

    <circle cx="456" cy="567" r="34" fill="#130C0E" stroke="#E15448" stroke-opacity="0.9" stroke-width="2"/>
    <circle cx="456" cy="567" r="13" fill="#F7D7C8"/>
    <path d="M456 546L463 562H449L456 546Z" fill="#F7D7C8"/>
    <path d="M456 580C446 580 438 572.5 438 563H474C474 572.5 466 580 456 580Z" fill="#F7D7C8"/>
    <text x="516" y="560" fill="#FFFFFF" font-size="34" font-weight="800" letter-spacing="-1.36" font-family="'Helvetica Neue', Helvetica, Arial, sans-serif">52.7k</text>
    <text x="516" y="596" fill="#F0E4E2" font-size="22" font-weight="500" font-family="'Helvetica Neue', Helvetica, Arial, sans-serif">developer tools</text>

    <circle cx="744" cy="567" r="34" fill="#130C0E" stroke="#E15448" stroke-opacity="0.9" stroke-width="2"/>
    <circle cx="744" cy="567" r="18" fill="#F7D7C8"/>
    <circle cx="744" cy="567" r="12" fill="#0C090B"/>
    <path d="M744 545L751 551" stroke="#0C090B" stroke-width="3.5" stroke-linecap="round"/>
    <path d="M726 558L733 561" stroke="#0C090B" stroke-width="3.5" stroke-linecap="round"/>
    <path d="M762 558L755 561" stroke="#0C090B" stroke-width="3.5" stroke-linecap="round"/>
    <path d="M733 580L727 586" stroke="#0C090B" stroke-width="3.5" stroke-linecap="round"/>
    <path d="M755 580L761 586" stroke="#0C090B" stroke-width="3.5" stroke-linecap="round"/>
    <text x="804" y="560" fill="#FFFFFF" font-size="34" font-weight="800" letter-spacing="-1.36" font-family="'Helvetica Neue', Helvetica, Arial, sans-serif">12M</text>
    <text x="804" y="596" fill="#F0E4E2" font-size="22" font-weight="500" font-family="'Helvetica Neue', Helvetica, Arial, sans-serif">downloads</text>
  </g>
</svg>
