<svg width="1200" height="630" viewBox="0 0 1200 630" fill="none" xmlns="http://www.w3.org/2000/svg">
  <defs>
    <radialGradient id="bgGlowMain" cx="0" cy="0" r="1" gradientUnits="userSpaceOnUse" gradientTransform="translate(838 332) rotate(180) scale(560 300)">
      <stop stop-color="#461714" stop-opacity="0.34"/>
      <stop offset="0.58" stop-color="#180A0D" stop-opacity="0.18"/>
      <stop offset="1" stop-color="#020204" stop-opacity="0"/>
    </radialGradient>
    <radialGradient id="bgGlowFloor" cx="0" cy="0" r="1" gradientUnits="userSpaceOnUse" gradientTransform="translate(228 612) rotate(-90) scale(220 520)">
      <stop stop-color="#6B1E18" stop-opacity="0.18"/>
      <stop offset="1" stop-color="#020204" stop-opacity="0"/>
    </radialGradient>
    <linearGradient id="cardFill" x1="86" y1="110" x2="1114" y2="524" gradientUnits="userSpaceOnUse">
      <stop stop-color="#0A090B" stop-opacity="0.97"/>
      <stop offset="0.55" stop-color="#12090C" stop-opacity="0.95"/>
      <stop offset="1" stop-color="#170B0E" stop-opacity="0.92"/>
    </linearGradient>
    <linearGradient id="cardStroke" x1="96" y1="116" x2="1096" y2="524" gradientUnits="userSpaceOnUse">
      <stop stop-color="#3F2E33" stop-opacity="0.62"/>
      <stop offset="0.6" stop-color="#8C352C" stop-opacity="0.14"/>
      <stop offset="1" stop-color="#D14A3B" stop-opacity="0.24"/>
    </linearGradient>
    <linearGradient id="searchStroke" x1="184" y1="473" x2="1016" y2="473" gradientUnits="userSpaceOnUse">
      <stop stop-color="#3B2022"/>
      <stop offset="1" stop-color="#6D2C29"/>
    </linearGradient>
    <linearGradient id="buttonFill" x1="760" y1="443" x2="996" y2="503" gradientUnits="userSpaceOnUse">
      <stop stop-color="#C84A3A"/>
      <stop offset="1" stop-color="#D85B46"/>
    </linearGradient>
    <filter id="softBlur" x="-30%" y="-30%" width="160%" height="160%">
      <feGaussianBlur stdDeviation="18"/>
    </filter>
  </defs>

  <rect width="1200" height="630" fill="#020204"/>
  <rect width="1200" height="630" fill="url(#bgGlowMain)"/>
  <rect width="1200" height="630" fill="url(#bgGlowFloor)"/>

  <g opacity="0.18">
    <circle cx="876" cy="186" r="2" fill="#FF5B49"/>
    <circle cx="958" cy="236" r="1.6" fill="#FF5B49"/>
    <circle cx="1042" cy="318" r="1.8" fill="#FF7C68"/>
    <circle cx="1086" cy="406" r="1.4" fill="#FF5B49"/>
    <circle cx="916" cy="542" r="1.6" fill="#FF7C68"/>
    <circle cx="1042" cy="564" r="1.3" fill="#FF5B49"/>
    <circle cx="146" cy="534" r="1.4" fill="#FF7C68"/>
    <circle cx="230" cy="568" r="1.2" fill="#FF5B49"/>
    <circle cx="318" cy="586" r="1.6" fill="#FF7C68"/>
  </g>

  <path d="M792 126C920 144 1022 194 1082 286" stroke="#AA3A2F" stroke-opacity="0.16" stroke-width="2"/>
  <path d="M888 154C994 184 1054 248 1114 350" stroke="#AA3A2F" stroke-opacity="0.1" stroke-width="2"/>
  <path d="M108 520H382" stroke="#B44333" stroke-opacity="0.22" stroke-width="2"/>
  <path d="M972 350H1188" stroke="#B44333" stroke-opacity="0.14" stroke-width="2"/>

  <g>
    <rect x="86" y="110" width="1028" height="414" rx="42" fill="url(#cardFill)"/>
    <rect x="86.75" y="110.75" width="1026.5" height="412.5" rx="41.25" stroke="url(#cardStroke)" stroke-width="1.5"/>
    <rect x="112" y="118" width="334" height="286" rx="36" fill="#110C0F"/>
    <rect x="112.75" y="118.75" width="332.5" height="284.5" rx="35.25" stroke="#584144" stroke-opacity="0.42" stroke-width="1.5"/>
    <ellipse cx="108" cy="518" rx="38" ry="12" fill="#F04B3D" fill-opacity="0.18" filter="url(#softBlur)"/>
    <ellipse cx="958" cy="202" rx="124" ry="70" fill="#A43027" fill-opacity="0.06" filter="url(#softBlur)"/>
  </g>

  <image href="clawd-logo.png" x="118" y="98" width="322" height="322" preserveAspectRatio="xMidYMid meet"/>

  <text x="512" y="258" fill="#F6F1EF" font-size="96" font-weight="900" letter-spacing="-4.4" font-family="'Helvetica Neue', Helvetica, Arial, sans-serif">ClawHub.ai</text>
  <text x="514" y="330" fill="#F6F1EF" font-size="42" font-weight="800" letter-spacing="-1.2" font-family="'Helvetica Neue', Helvetica, Arial, sans-serif">Equip. Install. <tspan fill="#FF5A49">Build.</tspan></text>
  <text x="514" y="391" fill="#CFC3C2" font-size="28" font-weight="500" letter-spacing="-0.2" font-family="'Helvetica Neue', Helvetica, Arial, sans-serif">Developer tools and agent skills for your next project.</text>

  <g>
    <rect x="184" y="428" width="832" height="90" rx="28" fill="#100B0E"/>
    <rect x="184.75" y="428.75" width="830.5" height="88.5" rx="27.25" stroke="url(#searchStroke)" stroke-width="1.5"/>
    <circle cx="244" cy="473" r="16" stroke="#F3E7E5" stroke-width="4"/>
    <line x1="255" y1="484" x2="269" y2="498" stroke="#F3E7E5" stroke-width="4" stroke-linecap="round"/>
    <text x="300" y="484" fill="#D9CECD" font-size="28" font-weight="500" font-family="'Helvetica Neue', Helvetica, Arial, sans-serif">What are you looking for?</text>
    <rect x="760" y="443" width="236" height="60" rx="18" fill="url(#buttonFill)"/>
    <text x="878" y="482" text-anchor="middle" fill="#FFF6F2" font-size="27" font-weight="800" font-family="'Helvetica Neue', Helvetica, Arial, sans-serif">Search tools</text>
  </g>

  <g>
    <rect x="304" y="548" width="162" height="38" rx="19" fill="#181216" stroke="#32262A"/>
    <text x="385" y="573" text-anchor="middle" fill="#ECE2E0" font-size="18" font-weight="500" font-family="'Helvetica Neue', Helvetica, Arial, sans-serif">self-improving</text>
    <rect x="486" y="548" width="208" height="38" rx="19" fill="#181216" stroke="#32262A"/>
    <text x="590" y="573" text-anchor="middle" fill="#ECE2E0" font-size="18" font-weight="500" font-family="'Helvetica Neue', Helvetica, Arial, sans-serif">GitHub integration</text>
    <rect x="714" y="548" width="154" height="38" rx="19" fill="#181216" stroke="#32262A"/>
    <text x="791" y="573" text-anchor="middle" fill="#ECE2E0" font-size="18" font-weight="500" font-family="'Helvetica Neue', Helvetica, Arial, sans-serif">dashboard</text>
  </g>
</svg>
