<svg width="268" height="265" viewBox="0 0 268 265" fill="none" xmlns="http://www.w3.org/2000/svg">
  <path d="M102.482 96.392V71.234C102.482 69.116 103.277 67.526 105.131 66.467L155.712 37.339C162.596 33.367 170.806 31.513 179.279 31.513C211.056 31.513 231.186 56.142 231.186 82.357C231.186 84.21 231.186 86.328 230.916 88.448L178.484 57.729C175.307 55.877 172.128 55.877 168.951 57.729L102.482 96.392ZM220.589 194.373V134.259C220.589 130.55 219 127.903 215.822 126.049L149.354 87.388L171.069 74.94C172.923 73.882 174.512 73.882 176.364 74.94L226.945 104.07C241.506 112.544 251.306 130.55 251.306 148.027C251.306 168.153 239.396 186.69 220.589 194.37V194.373ZM86.859 141.41L65.144 128.699C63.292 127.642 62.496 126.053 62.496 123.933V65.676C62.496 37.34 84.2111 15.89 113.607 15.89C124.729 15.89 135.054 19.599 143.796 26.218L91.627 56.407C88.452 58.261 86.861 60.909 86.861 64.617V141.413L86.859 141.41ZM133.598 168.42L102.482 150.943V113.871L133.598 96.394L164.713 113.871V150.943L133.598 168.42ZM153.592 248.926C142.469 248.926 132.143 245.217 123.403 238.598L175.57 208.407C178.747 206.555 180.336 203.906 180.336 200.197V123.402L202.317 136.113C204.171 137.17 204.966 138.76 204.966 140.88V199.137C204.966 227.472 182.985 248.923 153.592 248.923V248.926ZM90.8311 189.872L40.25 160.742C25.684 152.268 15.888 134.262 15.888 116.785C15.888 96.394 28.069 78.122 46.869 70.442V130.819C46.869 134.528 48.46 137.175 51.636 139.029L117.841 177.425L96.126 189.872C94.273 190.93 92.6831 190.93 90.8311 189.872ZM87.92 233.301C57.995 233.301 36.0161 210.791 36.0161 182.986C36.0161 180.868 36.282 178.75 36.544 176.63L88.7111 206.821C91.8881 208.673 95.0691 208.673 98.244 206.821L164.713 168.423V193.58C164.713 195.7 163.918 197.289 162.064 198.347L111.485 227.477C104.599 231.449 96.3891 233.301 87.9171 233.301H87.92ZM153.592 264.812C185.635 264.812 212.379 242.039 218.473 211.85C248.136 204.169 267.196 176.364 267.196 148.03C267.196 129.493 259.256 111.487 244.956 98.51C246.276 92.949 247.076 87.388 247.076 81.828C247.076 43.961 216.354 15.624 180.868 15.624C173.719 15.624 166.834 16.681 159.95 19.067C148.031 7.414 131.613 0 113.607 0C81.5641 0 54.819 22.773 48.726 52.962C19.067 60.643 0 88.448 0 116.782C0 135.32 7.94402 153.326 22.244 166.302C20.919 171.863 20.125 177.425 20.125 182.985C20.125 220.852 50.844 249.189 86.33 249.189C93.478 249.189 100.364 248.131 107.249 245.745C119.165 257.398 135.584 264.812 153.592 264.812Z" fill="black" />
</svg>
