<svg width="266" height="291" viewBox="0 0 266 291" fill="none" xmlns="http://www.w3.org/2000/svg">
<path d="M27.644 94.6551C12.405 94.6551 0 82.1983 0 66.8964C0 51.5945 12.405 39.1377 27.644 39.1377C42.883 39.1377 55.288 51.5945 55.288 66.8964C55.288 82.1983 42.883 94.6551 27.644 94.6551ZM27.644 49.9797C18.378 49.9797 10.797 57.5154 10.797 66.8964C10.797 76.2775 18.302 83.8131 27.644 83.8131C36.986 83.8131 44.491 76.2775 44.491 66.8964C44.491 57.5154 36.986 49.9797 27.644 49.9797Z" fill="#2A3275"/>
<path d="M27.644 173.088C12.405 173.088 0 160.631 0 145.329C0 130.027 12.405 117.57 27.644 117.57C42.883 117.57 55.288 130.027 55.288 145.329C55.288 160.631 42.883 173.088 27.644 173.088ZM27.644 128.412C18.378 128.412 10.797 135.948 10.797 145.329C10.797 154.71 18.302 162.246 27.644 162.246C36.986 162.246 44.491 154.71 44.491 145.329C44.491 135.948 36.986 128.412 27.644 128.412Z" fill="#2A3275"/>
<path d="M27.644 251.366C12.405 251.366 0 238.909 0 223.607C0 208.305 12.405 195.849 27.644 195.849C42.883 195.849 55.288 208.305 55.288 223.607C55.288 238.909 42.883 251.366 27.644 251.366ZM27.644 206.691C18.378 206.691 10.797 214.226 10.797 223.607C10.797 232.988 18.302 240.524 27.644 240.524C36.986 240.524 44.491 232.988 44.491 223.607C44.491 214.226 36.986 206.691 27.644 206.691Z" fill="#2A3275"/>
<path d="M238.154 94.6551C222.915 94.6551 210.51 82.1983 210.51 66.8964C210.51 51.5945 222.915 39.1377 238.154 39.1377C253.393 39.1377 265.798 51.5945 265.798 66.8964C265.798 82.1983 253.393 94.6551 238.154 94.6551ZM238.154 49.9797C228.888 49.9797 221.307 57.5154 221.307 66.8964C221.307 76.2775 228.812 83.8131 238.154 83.8131C247.496 83.8131 255.001 76.2775 255.001 66.8964C255.001 57.5154 247.496 49.9797 238.154 49.9797Z" fill="#2A3275"/>
<path d="M238.154 173.088C222.915 173.088 210.51 160.631 210.51 145.329C210.51 130.027 222.915 117.57 238.154 117.57C253.393 117.57 265.798 130.027 265.798 145.329C265.798 160.631 253.393 173.088 238.154 173.088ZM238.154 128.412C228.888 128.412 221.307 135.948 221.307 145.329C221.307 154.71 228.812 162.246 238.154 162.246C247.496 162.246 255.001 154.71 255.001 145.329C255.001 135.948 247.496 128.412 238.154 128.412Z" fill="#2A3275"/>
<path d="M238.154 251.366C222.915 251.366 210.51 238.909 210.51 223.607C210.51 208.305 222.915 195.849 238.154 195.849C253.393 195.849 265.798 208.305 265.798 223.607C265.798 238.909 253.393 251.366 238.154 251.366ZM238.154 206.691C228.888 206.691 221.307 214.226 221.307 223.607C221.307 232.988 228.812 240.524 238.154 240.524C247.496 240.524 255.001 232.988 255.001 223.607C255.001 214.226 247.496 206.691 238.154 206.691Z" fill="#2A3275"/>
<path d="M132.936 133.796C117.697 133.796 105.292 121.339 105.292 106.037C105.292 90.7351 117.697 78.2783 132.936 78.2783C148.174 78.2783 160.58 90.7351 160.58 106.037C160.58 121.339 148.174 133.796 132.936 133.796ZM132.936 89.1204C123.67 89.1204 116.089 96.656 116.089 106.037C116.089 115.418 123.593 122.954 132.936 122.954C142.278 122.954 149.782 115.418 149.782 106.037C149.782 96.656 142.278 89.1204 132.936 89.1204Z" fill="#2A3275"/>
<path d="M132.936 55.5174C117.697 55.5174 105.292 43.0606 105.292 27.7587C105.292 12.4568 117.697 0 132.936 0C148.174 0 160.58 12.4568 160.58 27.7587C160.58 43.0606 148.174 55.5174 132.936 55.5174ZM132.936 10.842C123.67 10.842 116.089 18.3777 116.089 27.7587C116.089 37.1398 123.593 44.6754 132.936 44.6754C142.278 44.6754 149.782 37.1398 149.782 27.7587C149.782 18.3777 142.278 10.842 132.936 10.842Z" fill="#2A3275"/>
<path d="M132.936 212.305C117.697 212.305 105.292 199.848 105.292 184.546C105.292 169.244 117.697 156.787 132.936 156.787C148.174 156.787 160.58 169.244 160.58 184.546C160.58 199.848 148.174 212.305 132.936 212.305ZM132.936 167.629C123.67 167.629 116.089 175.165 116.089 184.546C116.089 193.927 123.593 201.462 132.936 201.462C142.278 201.462 149.782 193.927 149.782 184.546C149.782 175.165 142.278 167.629 132.936 167.629Z" fill="#2A3275"/>
<path d="M132.936 290.583C117.697 290.583 105.292 278.126 105.292 262.824C105.292 247.522 117.697 235.065 132.936 235.065C148.174 235.065 160.58 247.522 160.58 262.824C160.58 278.126 148.174 290.583 132.936 290.583ZM132.936 245.907C123.67 245.907 116.089 253.443 116.089 262.824C116.089 272.205 123.593 279.741 132.936 279.741C142.278 279.741 149.782 272.205 149.782 262.824C149.782 253.443 142.278 245.907 132.936 245.907Z" fill="#2A3275"/>
<path d="M88.826 99.4998C87.677 99.4998 86.605 99.2691 85.457 98.8846L67.461 91.6566C62.79 89.8111 60.569 84.5054 62.407 79.8918C64.245 75.2013 69.529 72.9714 74.2 74.8168L92.195 82.0448C96.866 83.8903 99.0869 89.196 97.2489 93.8096C95.8709 97.3467 92.425 99.4998 88.826 99.4998Z" fill="#52A4DA"/>
<path d="M88.826 176.317C87.677 176.317 86.605 176.086 85.457 175.702L67.461 168.474C62.79 166.629 60.569 161.323 62.407 156.709C64.245 152.019 69.529 149.789 74.2 151.634L92.195 158.862C96.866 160.708 99.0869 166.013 97.2489 170.627C95.8709 174.164 92.425 176.317 88.826 176.317Z" fill="#52A4DA"/>
<path d="M194.578 137.947C193.429 137.947 192.357 137.716 191.209 137.332L173.213 130.104C168.542 128.258 166.322 122.953 168.159 118.339C169.997 113.649 175.281 111.419 179.876 113.264L197.871 120.492C202.542 122.338 204.763 127.643 202.925 132.257C201.547 135.794 198.101 137.947 194.502 137.947H194.578Z" fill="#52A4DA"/>
<path d="M194.578 61.0535C193.429 61.0535 192.357 60.8228 191.209 60.4383L173.213 53.2103C168.542 51.3648 166.322 46.0592 168.159 41.4455C169.997 36.755 175.281 34.5251 179.876 36.3705L197.871 43.5986C202.542 45.444 204.763 50.7497 202.925 55.3633C201.547 58.9005 198.101 61.0535 194.502 61.0535H194.578Z" fill="#52A4DA"/>
<path d="M194.578 214.687C193.429 214.687 192.357 214.457 191.209 214.072L173.213 206.844C168.542 204.999 166.322 199.693 168.159 195.079C169.997 190.389 175.281 188.159 179.876 190.004L197.871 197.232C202.542 199.078 204.763 204.383 202.925 208.997C201.547 212.534 198.101 214.687 194.502 214.687H194.578Z" fill="#52A4DA"/>
<path d="M71.2963 217.456C67.6973 217.456 64.3283 215.303 62.8733 211.766C61.0353 207.075 63.2563 201.846 67.9273 200.001L85.9223 192.773C90.5943 190.927 95.8013 193.157 97.7153 197.848C99.5533 202.538 97.3323 207.767 92.6613 209.613L74.6663 216.841C73.5943 217.302 72.4453 217.456 71.2963 217.456Z" fill="#52A4DA"/>
<path d="M71.2963 141.1C67.6973 141.1 64.3283 138.947 62.8733 135.41C61.0353 130.72 63.2563 125.491 67.9273 123.645L85.9223 116.417C90.5943 114.572 95.8013 116.802 97.7153 121.492C99.5533 126.183 97.3323 131.412 92.6613 133.257L74.6663 140.485C73.5943 140.947 72.4453 141.1 71.2963 141.1Z" fill="#52A4DA"/>
<path d="M71.2963 60.822C67.6973 60.822 64.3283 58.669 62.8733 55.1319C61.0353 50.4414 63.2563 45.2126 67.9273 43.3671L85.9223 36.1391C90.5943 34.2936 95.8013 36.5235 97.7153 41.2141C99.5533 45.9046 97.3323 51.1334 92.6613 52.9789L74.6663 60.2069C73.5943 60.6683 72.4453 60.822 71.2963 60.822Z" fill="#52A4DA"/>
<path d="M88.826 258.671C87.677 258.671 86.605 258.44 85.457 258.055L67.461 250.827C62.79 248.982 60.569 243.676 62.407 239.063C64.245 234.449 69.529 232.142 74.123 233.988L92.119 241.216C96.79 243.061 99.011 248.367 97.173 252.98C95.794 256.518 92.3479 258.671 88.7489 258.671H88.826Z" fill="#52A4DA"/>
<path d="M176.583 99.5005C172.984 99.5005 169.614 97.3475 168.159 93.8103C166.322 89.1198 168.542 83.891 173.213 81.9687L191.209 74.7406C195.88 72.8952 201.087 75.1251 203.002 79.8156C204.839 84.5062 202.619 89.735 197.947 91.6573L179.952 98.8853C178.88 99.3467 177.731 99.5005 176.583 99.5005Z" fill="#52A4DA"/>
<path d="M176.583 176.317C172.984 176.317 169.614 174.164 168.159 170.627C166.322 165.936 168.542 160.707 173.213 158.785L191.209 151.557C195.88 149.712 201.087 151.942 203.002 156.632C204.839 161.323 202.619 166.551 197.947 168.474L179.952 175.702C178.88 176.163 177.731 176.317 176.583 176.317Z" fill="#52A4DA"/>
<path d="M176.583 258.671C172.984 258.671 169.614 256.518 168.159 252.981C166.322 248.29 168.542 243.061 173.213 241.216L191.209 233.988C195.88 232.142 201.087 234.372 202.925 239.063C204.763 243.753 202.542 248.982 197.871 250.827L179.876 258.056C178.803 258.517 177.655 258.671 176.506 258.671H176.583Z" fill="#52A4DA"/>
</svg>
