<svg width="267" height="291" viewBox="176 0 267 291" fill="none" xmlns="http://www.w3.org/2000/svg">
<g clip-path="url(#clip0_6630_17005)">
<path d="M72.162 310.84V414.284H56.8375L55.7651 405.114C50.6454 413.103 42.4469 415.778 34.3869 415.778C14.8766 415.778 0.209351 402.821 0.209351 380.938C0.209351 357.977 14.5999 346.097 33.9718 346.097C40.9595 346.097 51.8561 349.883 55.7651 356.761V319.871L72.162 310.84ZM16.6063 380.903C16.6063 392.505 24.9431 400.494 35.4246 400.494C45.9062 400.494 54.6581 392.922 54.6581 380.903C54.6581 368.884 45.7678 361.451 35.4246 361.451C25.0814 361.451 16.6063 368.884 16.6063 380.903Z" fill="#010101"/>
<path d="M101.909 386.877C102.981 395.11 110.107 401.05 121.696 401.05C127.75 401.05 135.671 398.757 139.442 394.832L149.924 405.218C142.936 412.513 131.486 416.021 121.419 416.021C98.5535 416.021 84.9586 401.849 84.9586 380.486C84.9586 359.123 98.6919 345.646 120.209 345.646C141.725 345.646 156.254 359.436 153.694 386.843H101.909V386.877ZM137.955 373.226C136.882 364.577 130.171 360.269 120.727 360.269C111.837 360.269 104.573 364.577 102.151 373.226H137.955Z" fill="#010101"/>
<path d="M180.294 386.877C181.366 395.11 188.493 401.05 200.081 401.05C206.135 401.05 214.057 398.757 217.827 394.832L228.309 405.218C221.321 412.513 209.871 416.021 199.804 416.021C176.939 416.021 163.344 401.849 163.344 380.486C163.344 359.123 177.077 345.646 198.594 345.646C220.11 345.646 234.639 359.436 232.079 386.843H180.294V386.877ZM216.34 373.226C215.267 364.577 208.556 360.269 199.113 360.269C190.222 360.269 182.958 364.577 180.536 373.226H216.34Z" fill="#010101"/>
<path d="M244.775 442.108V347.695L261.172 356.865C266.291 349.432 275.147 346.201 282.688 346.201C303.133 346.201 316.727 361.45 316.727 381.042C316.727 400.633 304.482 415.882 283.242 415.882C276.254 415.882 265.876 413.728 261.172 406.434V442.108H244.775ZM300.331 381.076C300.331 370.69 293.343 362.18 281.512 362.18C269.682 362.18 262.694 370.69 262.694 381.076C262.694 391.463 270.373 399.973 281.512 399.973C292.651 399.973 300.331 391.463 300.331 381.076Z" fill="#010101"/>
<path d="M346.687 322.546C346.687 335.364 327.316 335.364 327.316 322.546C327.316 309.728 346.687 309.728 346.687 322.546Z" fill="#2A3275"/>
<path d="M345.233 347.382H328.802V414.249H345.233V347.382Z" fill="#2A3275"/>
<path d="M408.883 414.32V379.48C408.883 369.337 403.348 361.66 392.867 361.66C382.385 361.66 375.916 370.17 375.916 380.313V414.355H359.623V347.592L375.363 356.623C382.108 349.989 388.819 346.619 397.156 346.619C412.757 346.619 425.28 358.36 425.28 379.306V414.285H408.848L408.883 414.32Z" fill="#2A3275"/>
<path d="M444.792 414.283V363.082H432.408V348.631H444.792V344.185C444.792 326.365 456.761 318.133 470.08 318.133C475.857 318.133 481.91 320.009 487.307 323.552L481.253 335.848C477.759 333.556 474.507 332.34 471.152 332.34C465.513 332.34 461.189 336.126 461.189 344.22V348.666H480.699V363.116H461.189V414.317H444.792V414.283Z" fill="#2A3275"/>
<path d="M508.649 355.406C513.769 347.174 520.618 345.958 527.364 345.958C534.109 345.958 540.82 348.667 544.453 352.315L537.05 366.626C533.694 363.778 530.581 362.319 525.219 362.319C516.606 362.319 508.684 366.904 508.684 379.201V414.319H492.287V347.695L508.684 355.406H508.649Z" fill="#2A3275"/>
<path d="M602.707 356.866L619 347.695V414.285H603.537L602.741 404.559C598.971 412.374 588.627 416.161 581.225 416.299C561.576 416.438 547.047 404.281 547.047 380.903C547.047 357.526 562.233 345.924 581.605 346.063C590.495 346.063 598.971 350.266 602.707 356.866ZM563.444 380.903C563.444 393.617 572.196 401.154 583.093 401.154C608.933 401.154 608.933 360.756 583.093 360.756C572.196 360.756 563.444 368.19 563.444 380.868" fill="#2A3275"/>
</g>
<path d="M204.501 94.6551C189.262 94.6551 176.857 82.1983 176.857 66.8964C176.857 51.5945 189.262 39.1377 204.501 39.1377C219.74 39.1377 232.145 51.5945 232.145 66.8964C232.145 82.1983 219.74 94.6551 204.501 94.6551ZM204.501 49.9797C195.235 49.9797 187.654 57.5154 187.654 66.8964C187.654 76.2775 195.159 83.8131 204.501 83.8131C213.843 83.8131 221.348 76.2775 221.348 66.8964C221.348 57.5154 213.843 49.9797 204.501 49.9797Z" fill="#2A3275"/>
<path d="M204.501 173.088C189.262 173.088 176.857 160.631 176.857 145.329C176.857 130.027 189.262 117.57 204.501 117.57C219.74 117.57 232.145 130.027 232.145 145.329C232.145 160.631 219.74 173.088 204.501 173.088ZM204.501 128.412C195.235 128.412 187.654 135.948 187.654 145.329C187.654 154.71 195.159 162.246 204.501 162.246C213.843 162.246 221.348 154.71 221.348 145.329C221.348 135.948 213.843 128.412 204.501 128.412Z" fill="#2A3275"/>
<path d="M204.501 251.366C189.262 251.366 176.857 238.909 176.857 223.607C176.857 208.305 189.262 195.849 204.501 195.849C219.74 195.849 232.145 208.305 232.145 223.607C232.145 238.909 219.74 251.366 204.501 251.366ZM204.501 206.691C195.235 206.691 187.654 214.226 187.654 223.607C187.654 232.988 195.159 240.524 204.501 240.524C213.843 240.524 221.348 232.988 221.348 223.607C221.348 214.226 213.843 206.691 204.501 206.691Z" fill="#2A3275"/>
<path d="M415.011 94.6551C399.772 94.6551 387.367 82.1983 387.367 66.8964C387.367 51.5945 399.772 39.1377 415.011 39.1377C430.25 39.1377 442.655 51.5945 442.655 66.8964C442.655 82.1983 430.25 94.6551 415.011 94.6551ZM415.011 49.9797C405.745 49.9797 398.164 57.5154 398.164 66.8964C398.164 76.2775 405.669 83.8131 415.011 83.8131C424.353 83.8131 431.858 76.2775 431.858 66.8964C431.858 57.5154 424.353 49.9797 415.011 49.9797Z" fill="#2A3275"/>
<path d="M415.011 173.088C399.772 173.088 387.367 160.631 387.367 145.329C387.367 130.027 399.772 117.57 415.011 117.57C430.25 117.57 442.655 130.027 442.655 145.329C442.655 160.631 430.25 173.088 415.011 173.088ZM415.011 128.412C405.745 128.412 398.164 135.948 398.164 145.329C398.164 154.71 405.669 162.246 415.011 162.246C424.353 162.246 431.858 154.71 431.858 145.329C431.858 135.948 424.353 128.412 415.011 128.412Z" fill="#2A3275"/>
<path d="M415.011 251.366C399.772 251.366 387.367 238.909 387.367 223.607C387.367 208.305 399.772 195.849 415.011 195.849C430.25 195.849 442.655 208.305 442.655 223.607C442.655 238.909 430.25 251.366 415.011 251.366ZM415.011 206.691C405.745 206.691 398.164 214.226 398.164 223.607C398.164 232.988 405.669 240.524 415.011 240.524C424.353 240.524 431.858 232.988 431.858 223.607C431.858 214.226 424.353 206.691 415.011 206.691Z" fill="#2A3275"/>
<path d="M309.793 133.796C294.554 133.796 282.149 121.339 282.149 106.037C282.149 90.7351 294.554 78.2783 309.793 78.2783C325.031 78.2783 337.437 90.7351 337.437 106.037C337.437 121.339 325.031 133.796 309.793 133.796ZM309.793 89.1204C300.527 89.1204 292.946 96.656 292.946 106.037C292.946 115.418 300.45 122.954 309.793 122.954C319.135 122.954 326.639 115.418 326.639 106.037C326.639 96.656 319.135 89.1204 309.793 89.1204Z" fill="#2A3275"/>
<path d="M309.793 55.5174C294.554 55.5174 282.149 43.0606 282.149 27.7587C282.149 12.4568 294.554 0 309.793 0C325.031 0 337.437 12.4568 337.437 27.7587C337.437 43.0606 325.031 55.5174 309.793 55.5174ZM309.793 10.842C300.527 10.842 292.946 18.3777 292.946 27.7587C292.946 37.1398 300.45 44.6754 309.793 44.6754C319.135 44.6754 326.639 37.1398 326.639 27.7587C326.639 18.3777 319.135 10.842 309.793 10.842Z" fill="#2A3275"/>
<path d="M309.793 212.305C294.554 212.305 282.149 199.848 282.149 184.546C282.149 169.244 294.554 156.787 309.793 156.787C325.031 156.787 337.437 169.244 337.437 184.546C337.437 199.848 325.031 212.305 309.793 212.305ZM309.793 167.629C300.527 167.629 292.946 175.165 292.946 184.546C292.946 193.927 300.45 201.462 309.793 201.462C319.135 201.462 326.639 193.927 326.639 184.546C326.639 175.165 319.135 167.629 309.793 167.629Z" fill="#2A3275"/>
<path d="M309.793 290.583C294.554 290.583 282.149 278.126 282.149 262.824C282.149 247.522 294.554 235.065 309.793 235.065C325.031 235.065 337.437 247.522 337.437 262.824C337.437 278.126 325.031 290.583 309.793 290.583ZM309.793 245.907C300.527 245.907 292.946 253.443 292.946 262.824C292.946 272.205 300.45 279.741 309.793 279.741C319.135 279.741 326.639 272.205 326.639 262.824C326.639 253.443 319.135 245.907 309.793 245.907Z" fill="#2A3275"/>
<path d="M265.683 99.4998C264.534 99.4998 263.462 99.2691 262.314 98.8846L244.318 91.6566C239.647 89.8111 237.426 84.5054 239.264 79.8918C241.102 75.2013 246.386 72.9714 251.057 74.8168L269.052 82.0448C273.723 83.8903 275.944 89.196 274.106 93.8096C272.728 97.3467 269.282 99.4998 265.683 99.4998Z" fill="#52A4DA"/>
<path d="M265.683 176.317C264.534 176.317 263.462 176.086 262.314 175.702L244.318 168.474C239.647 166.629 237.426 161.323 239.264 156.709C241.102 152.019 246.386 149.789 251.057 151.634L269.052 158.862C273.723 160.708 275.944 166.013 274.106 170.627C272.728 174.164 269.282 176.317 265.683 176.317Z" fill="#52A4DA"/>
<path d="M371.435 137.947C370.286 137.947 369.214 137.716 368.066 137.332L350.07 130.104C345.399 128.258 343.179 122.953 345.016 118.339C346.854 113.649 352.138 111.419 356.733 113.264L374.728 120.492C379.399 122.338 381.62 127.643 379.782 132.257C378.404 135.794 374.958 137.947 371.359 137.947H371.435Z" fill="#52A4DA"/>
<path d="M371.435 61.0535C370.286 61.0535 369.214 60.8228 368.066 60.4383L350.07 53.2103C345.399 51.3648 343.179 46.0592 345.016 41.4455C346.854 36.755 352.138 34.5251 356.733 36.3705L374.728 43.5986C379.399 45.444 381.62 50.7497 379.782 55.3633C378.404 58.9005 374.958 61.0535 371.359 61.0535H371.435Z" fill="#52A4DA"/>
<path d="M371.435 214.687C370.286 214.687 369.214 214.457 368.066 214.072L350.07 206.844C345.399 204.999 343.179 199.693 345.016 195.079C346.854 190.389 352.138 188.159 356.733 190.004L374.728 197.232C379.399 199.078 381.62 204.383 379.782 208.997C378.404 212.534 374.958 214.687 371.359 214.687H371.435Z" fill="#52A4DA"/>
<path d="M248.153 217.456C244.554 217.456 241.185 215.303 239.73 211.766C237.892 207.075 240.113 201.846 244.784 200.001L262.779 192.773C267.451 190.927 272.658 193.157 274.572 197.848C276.41 202.538 274.189 207.767 269.518 209.613L251.523 216.841C250.451 217.302 249.302 217.456 248.153 217.456Z" fill="#52A4DA"/>
<path d="M248.153 141.1C244.554 141.1 241.185 138.947 239.73 135.41C237.892 130.72 240.113 125.491 244.784 123.645L262.779 116.417C267.451 114.572 272.658 116.802 274.572 121.492C276.41 126.183 274.189 131.412 269.518 133.257L251.523 140.485C250.451 140.947 249.302 141.1 248.153 141.1Z" fill="#52A4DA"/>
<path d="M248.153 60.822C244.554 60.822 241.185 58.669 239.73 55.1319C237.892 50.4414 240.113 45.2126 244.784 43.3671L262.779 36.1391C267.451 34.2936 272.658 36.5235 274.572 41.2141C276.41 45.9046 274.189 51.1334 269.518 52.9789L251.523 60.2069C250.451 60.6683 249.302 60.822 248.153 60.822Z" fill="#52A4DA"/>
<path d="M265.683 258.671C264.534 258.671 263.462 258.44 262.314 258.055L244.318 250.827C239.647 248.982 237.426 243.676 239.264 239.063C241.102 234.449 246.386 232.142 250.98 233.988L268.976 241.216C273.647 243.061 275.868 248.367 274.03 252.98C272.651 256.518 269.205 258.671 265.606 258.671H265.683Z" fill="#52A4DA"/>
<path d="M353.44 99.5005C349.841 99.5005 346.471 97.3475 345.016 93.8103C343.179 89.1198 345.399 83.891 350.07 81.9687L368.066 74.7406C372.737 72.8952 377.944 75.1251 379.859 79.8156C381.696 84.5062 379.476 89.735 374.804 91.6573L356.809 98.8853C355.737 99.3467 354.588 99.5005 353.44 99.5005Z" fill="#52A4DA"/>
<path d="M353.44 176.317C349.841 176.317 346.471 174.164 345.016 170.627C343.179 165.936 345.399 160.707 350.07 158.785L368.066 151.557C372.737 149.712 377.944 151.942 379.859 156.632C381.696 161.323 379.476 166.551 374.804 168.474L356.809 175.702C355.737 176.163 354.588 176.317 353.44 176.317Z" fill="#52A4DA"/>
<path d="M353.44 258.671C349.841 258.671 346.471 256.518 345.016 252.981C343.179 248.29 345.399 243.061 350.07 241.216L368.066 233.988C372.737 232.142 377.944 234.372 379.782 239.063C381.62 243.753 379.399 248.982 374.728 250.827L356.733 258.056C355.66 258.517 354.512 258.671 353.363 258.671H353.44Z" fill="#52A4DA"/>
<defs>
<clipPath id="clip0_6630_17005">
<rect width="619" height="131.303" fill="white" transform="translate(0 310.84)"/>
</clipPath>
</defs>
</svg>
