<svg width="121" height="180" viewBox="0 0 121 180" fill="none" xmlns="http://www.w3.org/2000/svg">
<path d="M0 150C0 133.431 13.4764 120 30.1003 120H60.2007V150C60.2007 166.569 46.7243 180 30.1003 180C13.4764 180 0 166.569 0 150Z" fill="#24CB71"/>
<path d="M60.2007 0V60H90.301C106.925 60 120.401 46.5685 120.401 30C120.401 13.4315 106.925 0 90.301 0L60.2007 0Z" fill="#FF7237"/>
<ellipse cx="90.0502" cy="90" rx="30.1003" ry="30" fill="#00B6FF"/>
<path d="M0 30C0 46.5685 13.4764 60 30.1003 60H60.2007L60.2007 -3.8147e-06H30.1003C13.4764 -3.8147e-06 0 13.4315 0 30Z" fill="#FF3737"/>
<path d="M0 90C0 106.569 13.4764 120 30.1003 120L60.2007 120L60.2007 60H30.1003C13.4764 60 0 73.4315 0 90Z" fill="#874FFF"/>
</svg>
