<svg xmlns="http://www.w3.org/2000/svg" width="800" height="800" viewBox="0 0 800 800" fill="none" role="img" aria-labelledby="title">
  <title id="title">Boundless Book icon</title>
  <path d="M 202 85 L 202 272 L 201 273 L 128 273 L 128 545 L 201 545 L 202 546 L 202 715 L 381 557 L 382 558 L 382 715 L 416 715 L 416 556 L 417 555 L 597 713 L 597 546 L 598 545 L 671 545 L 671 273 L 598 273 L 597 272 L 597 84 L 417 250 L 416 249 L 416 84 L 382 84 L 382 248 L 381 249 Z M 381 330 L 382 331 L 382 511 L 253 625 L 237 638 L 236 637 L 236 462 Z M 418 330 L 563 462 L 563 636 L 562 637 L 417 509 L 417 331 Z M 354 307 L 355 308 L 202 447 L 202 510 L 201 511 L 163 511 L 162 510 L 162 308 L 163 307 Z M 447 307 L 636 307 L 637 308 L 637 510 L 636 511 L 598 511 L 597 510 L 597 445 L 454 316 L 446 308 Z M 563 164 L 563 272 L 562 273 L 445 273 L 444 272 L 562 163 Z M 236 164 L 237 163 L 355 272 L 354 273 L 237 273 L 236 272 Z" fill="#000000" fill-rule="evenodd"/>
</svg>
