<svg width="32" height="34" viewBox="0 0 32 34" fill="none" xmlns="http://www.w3.org/2000/svg">
<path d="M7.62549 26.7992H19.5537C21.3512 26.7992 23.0941 25.8188 23.9656 24.2393C24.8915 22.6597 24.8915 20.6989 23.9656 19.1194C23.0396 17.5398 21.3512 16.5594 19.5537 16.5594H16.6125H13.6168C11.765 16.6139 10.022 15.6335 9.0961 14.054C8.17016 12.4744 8.17016 10.4591 9.0961 8.87959C10.022 7.30005 11.765 6.31964 13.6168 6.37411H24.6192" stroke="#1A22E4" stroke-width="2.72335" stroke-linecap="round" stroke-linejoin="round"/>
<path d="M21.8974 1.36283H13.6729C10.0236 1.30836 6.64671 3.2147 4.79483 6.37379C2.94295 9.53289 2.99742 13.4 4.79483 16.5591C6.59224 19.7182 10.0236 21.6246 13.6729 21.5701H18.0303" stroke="#1A22E4" stroke-width="2.72335" stroke-linecap="round" stroke-linejoin="round"/>
<path d="M11.272 31.7552H19.4965C25.1066 31.7552 29.5729 27.2344 29.5729 21.6788C29.5729 16.1232 25.0521 11.6024 19.4965 11.6024H15.1391" stroke="#1A22E4" stroke-width="2.72335" stroke-linecap="round" stroke-linejoin="round"/>
<path d="M27.5064 9.31537C29.1007 9.31537 30.3931 8.02292 30.3931 6.42862C30.3931 4.83431 29.1007 3.54187 27.5064 3.54187C25.9121 3.54187 24.6196 4.83431 24.6196 6.42862C24.6196 8.02292 25.9121 9.31537 27.5064 9.31537Z" stroke="#1A22E4" stroke-width="2.72335" stroke-linecap="round" stroke-linejoin="round"/>
<path d="M4.24857 29.7949C5.84288 29.7949 7.13532 28.5024 7.13532 26.9081C7.13532 25.3138 5.84288 24.0214 4.24857 24.0214C2.65426 24.0214 1.36182 25.3138 1.36182 26.9081C1.36182 28.5024 2.65426 29.7949 4.24857 29.7949Z" stroke="#1A22E4" stroke-width="2.72335" stroke-linecap="round" stroke-linejoin="round"/>
</svg>
